<?xml version="1.0" encoding="UTF-8"?>
<svg xmlns="http://www.w3.org/2000/svg" id="Layer_1" data-name="Layer 1" viewBox="0 0 24 24">
  <path d="M12,0C5.383,0,0,5.383,0,12s5.383,12,12,12h7.5c3.56,0,4.5-2.943,4.5-4.5v-7.5C24,5.383,18.617,0,12,0Zm11,19.499c0,.143-.059,3.501-3.5,3.501h-7.5c-6.065,0-11-4.935-11-11S5.935,1,12,1s11,4.935,11,11v7.499Zm-6.01-9.479h-3l-1.06-2.848c-.252-.787-1.627-.786-1.882,0l-1.059,2.847h-3c-.921-.025-1.355,1.196-.632,1.768l2.362,1.923-.942,3.017c-.287,.861,.775,1.655,1.518,1.141l2.705-1.808,2.753,1.792c.749,.514,1.814-.292,1.496-1.163l-.979-2.979,2.378-1.937c.692-.557,.243-1.787-.658-1.754Zm-2.618,3.132c-.161,.131-.224,.347-.16,.544l1.083,3.316-3.026-1.97c-.167-.108-.385-.106-.551,.003l-2.957,1.974h-.028l1.042-3.333c.061-.195-.003-.408-.161-.537l-2.632-2.127s.003-.002,.008-.002h3.348c.209,0,.396-.13,.469-.326l1.186-3.174,1.181,3.175c.073,.195,.26,.325,.469,.325l3.366-.015-2.637,2.146Z"/>
</svg>
